<svg id="f614f1ee-a9c7-4d00-9391-bf4467c93a9b" data-name="图层 1" xmlns="http://www.w3.org/2000/svg" xmlns:xlink="http://www.w3.org/1999/xlink" width="80" height="80" viewBox="0 0 80 80"><defs><linearGradient id="9182a7b7-d565-4d20-a704-ccf2a0b2b0d1" x1="64.34" y1="12.07" x2="39.66" y2="29.29" gradientUnits="userSpaceOnUse"><stop offset="0.21" stop-color="#f5f5f5"/><stop offset="0.41" stop-color="#8c6239"/><stop offset="0.9" stop-color="#d8a362"/></linearGradient><linearGradient id="b75ccaa3-f57d-49c3-ab66-bd768306a332" x1="48.15" y1="68.24" x2="51.07" y2="47.08" gradientUnits="userSpaceOnUse"><stop offset="0.35" stop-color="#f5f5f5"/><stop offset="0.52" stop-color="#d8a362"/><stop offset="0.67" stop-color="#8c6239"/></linearGradient><linearGradient id="2fcd649e-2329-4bcf-8879-0e8f24961ae4" x1="51.69" y1="45.1" x2="47.57" y2="61.59" gradientUnits="userSpaceOnUse"><stop offset="0.09" stop-color="#f5f5f5"/><stop offset="0.49" stop-color="#d8a362"/><stop offset="0.91" stop-color="#fff"/></linearGradient><linearGradient id="8f701ea2-d47a-48b4-9cbc-a9fffef4554b" x1="17.87" y1="36.24" x2="35.84" y2="35.84" gradientUnits="userSpaceOnUse"><stop offset="0.06" stop-color="#f5f5f5"/><stop offset="0.37" stop-color="#b57744"/><stop offset="0.56" stop-color="#8c6239"/><stop offset="0.88" stop-color="#d8a362"/></linearGradient><linearGradient id="4cfcd391-2a15-4019-9b07-7e8a99ef6164" x1="14.67" y1="34.91" x2="34.98" y2="33.48" gradientUnits="userSpaceOnUse"><stop offset="0.28" stop-color="#ffc98b"/><stop offset="0.64" stop-color="#a66235"/><stop offset="1" stop-color="#fffff8"/></linearGradient><linearGradient id="fa9ab1bf-4380-4a8f-8f4a-ca1fe2d88542" x1="35.12" y1="15.1" x2="60.67" y2="47.8" gradientUnits="userSpaceOnUse"><stop offset="0.06" stop-color="#ffaf5c"/><stop offset="0.33" stop-color="#8c6239"/><stop offset="0.58" stop-color="#b57744"/><stop offset="0.78" stop-color="#d8a362"/></linearGradient></defs><title>logo7</title><path d="M59.3,34.4A66.8,66.8,0,0,0,49.1,0h0A46.3,46.3,0,0,1,38.4,52.1,57.3,57.3,0,0,0,59.3,34.4Z" fill="url(#9182a7b7-d565-4d20-a704-ccf2a0b2b0d1)"/><path d="M37.3,54a43.5,43.5,0,0,0,24,7.2h.7a27.3,27.3,0,0,0,.2-8.8h0A28.7,28.7,0,0,1,37.3,54Z" fill="url(#b75ccaa3-f57d-49c3-ab66-bd768306a332)"/><path d="M37.3,54h0a28.7,28.7,0,0,0,24.9-1.7,55.5,55.5,0,0,0-2.9-6.6A44.7,44.7,0,0,1,37.3,54Z" fill="url(#2fcd649e-2329-4bcf-8879-0e8f24961ae4)"/><path d="M17.6,19.3h0a43.6,43.6,0,0,0,18,33.5q-.4-1.9-.6-3.9A53.5,53.5,0,0,1,17.6,19.3Z" fill="url(#8f701ea2-d47a-48b4-9cbc-a9fffef4554b)"/><path d="M17.6,19.3A53.5,53.5,0,0,0,35,48.9q-.3-2.1-.4-4.2A70.5,70.5,0,0,1,17.6,19.3Z" fill="url(#4cfcd391-2a15-4019-9b07-7e8a99ef6164)"/><path d="M52.9,18.5A46.1,46.1,0,0,0,49.1,0,60.6,60.6,0,0,0,38.3,52.2h.1A46.1,46.1,0,0,0,52.9,18.5Z" fill="url(#fa9ab1bf-4380-4a8f-8f4a-ca1fe2d88542)"/><polygon points="2.8 71 2.8 71.6 8.5 71.6 8.5 79.5 9.7 79.5 9.7 71.6 15.5 71.6 15.5 71 2.8 71" fill="#161616"/><path d="M27.4,79.4h1.8L21.9,71l-7,8.4h1.6l2.1-2.6h6.6Zm-8.2-3.2,2.8-3.4,2.8,3.4Z" fill="#161616"/><path d="M64.9,79.4h1.8L59.5,71l-7,8.4H54l2.1-2.6h6.6Zm-8.2-3.2,2.8-3.4,2.8,3.4Z" fill="#161616"/><polygon points="76 71 76 78.5 69.7 71 69.7 71 68.5 71 68.5 79.5 69.7 79.5 69.7 71.9 76 79.5 76.1 79.5 77.2 79.5 77.2 71 76 71" fill="#161616"/><path d="M42.9,70.9h4.9a3.2,3.2,0,0,1,1.7.8,1.9,1.9,0,0,1,.6,1.4,1.9,1.9,0,0,1-.4,1.2,2.7,2.7,0,0,1-1.3.8,3.5,3.5,0,0,1-1.6.3l4.1,4H49.5l-4.1-4H44v4H42.9Zm1.1.8v2.9h2l1.7-.2a1.8,1.8,0,0,0,.9-.5,1.2,1.2,0,0,0,.3-.8,1.2,1.2,0,0,0-.3-.8,1.7,1.7,0,0,0-.8-.5l-1.7-.2Z" fill="#161616"/><path d="M39.1,71.8a5.1,5.1,0,0,1,0,6.8A5.1,5.1,0,0,1,35.3,80a5.1,5.1,0,0,1-3.7-1.4,5.1,5.1,0,0,1,0-6.8,5.1,5.1,0,0,1,3.8-1.4A5,5,0,0,1,39.1,71.8Zm-6.6.7a4.4,4.4,0,0,0,0,5.5,3.7,3.7,0,0,0,2.9,1.1A3.8,3.8,0,0,0,38.2,78a4.4,4.4,0,0,0,0-5.6,3.8,3.8,0,0,0-2.8-1.1A3.8,3.8,0,0,0,32.5,72.5Z" fill="#161616"/></svg>